<svg width="24" height="24" viewBox="0 0 24 24" fill="none" xmlns="http://www.w3.org/2000/svg">
  <path d="M12 2.163c3.204 0 3.584.012 4.85.07 1.17.054 1.97.24 2.43.403a4.088 4.088 0 011.47.96c.458.457.779.916.96 1.47.163.46.349 1.26.403 2.43.058 1.266.07 1.646.07 4.85s-.012 3.584-.07 4.85c-.054 1.17-.24 1.97-.403 2.43a4.088 4.088 0 01-.96 1.47 4.088 4.088 0 01-1.47.96c-.46.163-1.26.349-2.43.403-1.266.058-1.646.07-4.85.07s-3.584-.012-4.85-.07c-1.17-.054-1.97-.24-2.43-.403a4.088 4.088 0 01-1.47-.96 4.088 4.088 0 01-.96-1.47c-.163-.46-.349-1.26-.403-2.43C2.175 15.584 2.163 15.204 2.163 12s.012-3.584.07-4.85c.054-1.17.24-1.97.403-2.43a4.088 4.088 0 01.96-1.47 4.088 4.088 0 011.47-.96c.46-.163 1.26-.349 2.43-.403C8.416 2.175 8.796 2.163 12 2.163zM12 0C8.741 0 8.333.014 7.053.072 5.775.131 4.903.333 4.14.63a5.876 5.876 0 00-2.126 1.384A5.876 5.876 0 00.63 4.14C.333 4.903.131 5.775.072 7.053.014 8.333 0 8.741 0 12s.014 3.667.072 4.947c.059 1.278.261 2.15.558 2.913a5.876 5.876 0 001.384 2.126A5.876 5.876 0 004.14 23.37c.763.297 1.635.499 2.913.558C8.333 23.986 8.741 24 12 24s3.667-.014 4.947-.072c1.278-.059 2.15-.261 2.913-.558a5.876 5.876 0 002.126-1.384 5.876 5.876 0 001.384-2.126c.297-.763.499-1.635.558-2.913.058-1.28.072-1.688.072-4.947s-.014-3.667-.072-4.947c-.059-1.278-.261-2.15-.558-2.913a5.876 5.876 0 00-1.384-2.126A5.876 5.876 0 0019.86.63C19.097.333 18.225.131 16.947.072 15.667.014 15.259 0 12 0z" fill="white"/>
  <path d="M12 5.838a6.162 6.162 0 100 12.324 6.162 6.162 0 000-12.324zM12 16a4 4 0 110-8 4 4 0 010 8z" fill="white"/>
  <circle cx="18.406" cy="5.594" r="1.44" fill="white"/>
</svg>
